# AST/ASF file generated using VICON BodyLanguage
# -----------------------------------------------
:version 1.10
:name VICON
:units
  mass 1.0
  length 0.45
  angle deg
:documentation
   .ast/.asf automatically generated from VICON data using
   VICON BodyBuilder and BodyLanguage model FoxedUp or BRILLIANT.MOD
:root
   order TX TY TZ RX RY RZ
   axis XYZ
   position 0 0 0  
   orientation 0 0 0 
:bonedata
  begin
     id 1 
     name lhipjoint
     direction 0.635376 -0.686425 0.353719 
     length 2.47244 
     axis 0 0 0  XYZ
  end
  begin
     id 2 
     name lfemur
     direction 0.34202 -0.939693 0  
     length 7.25268  
     axis 0 0 20  XYZ
    dof rx ry rz
    limits (-160.0 20.0)
           (-70.0 70.0)
           (-60.0 70.0)
  end
  begin
     id 3 
     name ltibia
     direction 0.34202 -0.939693 0   
     length 7.6767   
     axis 0 0 20   XYZ
    dof rx
    limits (-10.0 170.0)
  end
  begin
     id 4 
     name lfoot
     direction 0.0803374 -0.220725 0.972022   
     length 2.22945   
     axis -90 7.62852e-016 20   XYZ
    dof rx rz
    limits (-45.0 90.0)
           (-70.0 20.0)
  end
  begin
     id 5 
     name ltoes
     direction 1.53579e-011 -4.21994e-011 1   
     length 1.11848   
     axis -90 7.62852e-016 20   XYZ
    dof rx
    limits (-90.0 20.0)
  end
  begin
     id 6 
     name rhipjoint
     direction -0.664428 -0.664335 0.342336   
     length 2.55466  
     axis 0 0 0  XYZ 
  end
  begin
     id 7 
     name rfemur
     direction -0.34202 -0.939693 0   
     length 6.83172   
     axis 0 0 -20   XYZ
    dof rx ry rz
    limits (-160.0 20.0)
           (-70.0 70.0)
           (-70.0 60.0)
  end
  begin
     id 8 
     name rtibia
     direction -0.34202 -0.939693 0   
     length 7.62692   
     axis 0 0 -20   XYZ
    dof rx
    limits (-10.0 170.0)
 end
 begin
     id 9 
     name rfoot
     direction -0.0949276 -0.260811 0.960711   
     length 2.19684  
     axis -90 -7.62852e-016 -20   XYZ
    dof rx rz
    limits (-45.0 90.0)
           (-20.0 70.0)
  end
  begin
     id 10 
     name rtoes
     direction -1.53543e-011 -4.2183e-011 1   
     length 1.09848   
     axis -90 -7.62852e-016 -20   XYZ
    dof rx
    limits (-90.0 20.0)
  end
  begin
     id 11 
     name lowerback
     direction 0.0118782 0.999815 -0.0151555   
     length 2.15772   
     axis 0 0 0   XYZ
    dof rx ry rz
    limits (-20.0 45.0)
           (-30.0 30.0)
           (-30.0 30.0)
  end
  begin
     id 12 
     name upperback
     direction 0.00130825 0.999065 0.0432113   
     length 2.14863   
     axis 0 0 0   XYZ
    dof rx ry rz
    limits (-20.0 45.0)
           (-30.0 30.0)
           (-30.0 30.0)
  end
  begin
     id 13 
     name thorax
     direction -0.00347005 0.998773 0.0494011   
     length 2.14936   
     axis 0 0 0   XYZ
    dof rx ry rz
    limits (-20.0 45.0)
           (-30.0 30.0)
           (-30.0 30.0)
  end
  begin
     id 14 
     name lowerneck
     direction -0.0262159 0.99424 0.103921   
     length 1.69373   
     axis 0 0 0   XYZ
    dof rx ry rz
    limits (-20.0 45.0)
           (-30.0 30.0)
           (-30.0 30.0)
  end
  begin
     id 15 
     name upperneck
     direction 0.0353511 0.977394 -0.20845   
     length 1.70857   
     axis 0 0 0   XYZ
    dof rx ry rz
    limits (-20.0 45.0)
           (-30.0 30.0)
           (-30.0 30.0)
  end
  begin
     id 16
     name head
     direction 0.0139214 0.996594 -0.0812836  
     length 1.72777  
     axis 0 0 0   XYZ
    dof rx ry rz
    limits (-20.0 45.0)
           (-30.0 30.0)
           (-30.0 30.0)
  end
  begin
     id 17 
     name lclavicle
     direction 0.841247 0.537205 -0.0609508  
     length 3.55371  
     axis 0 0 0   XYZ
    dof ry rz
    limits (-20.0 10.0)
           (0.0 20.0)
  end
  begin
     id 18 
     name lhumerus
     direction 1 -4.48964e-011 1.60116e-018   
     length 4.91377   
     axis -180 -30 -90   XYZ
    dof rx ry rz
    limits (-60.0 90.0)
           (-90.0 90.0)
           (-90.0 90.0)
  end
  begin
     id 19
     name lradius
     direction 1 -4.48989e-011 -8.93847e-027   
     length 3.00291   
     axis -180 -30 -90   XYZ
    dof rx
    limits (-10.0 170.0)
  end
  begin
     id 20
     name lwrist
     direction 1 -4.48932e-011 -7.31504e-027   
     length 1.50145   
     axis 5.74121e-015 90 90   XYZ
    dof ry
    limits (-180.0 0.0)
 end
  begin
     id 21 
     name lhand
     direction 1 -4.48971e-011 -1.46301e-026   
     length 0.450922   
     axis 9.33524e-015 90 90   XYZ
    dof rx rz
    limits (-90.0 90.0)
           (-45.0 45.0)
  end
  begin
     id 22 
     name lfingers
     direction 1 -4.49039e-011 -2.92602e-026   
     length 0.363545   
     axis 1.86705e-014 90 90   XYZ
    dof rx
    limits (0.0 90.0)
  end
  begin
     id 23
     name lthumb
     direction 0.707107 -6.34941e-011 0.707107   
     length 0.52198   
     axis -90 45 2.85299e-015   XYZ
    dof rx rz
    limits (-45.0 45.0)
           (-45.0 45.0)
  end
  begin
     id 24 
     name rclavicle
     direction -0.825079 0.56158 -0.0622297   
     length 3.39909  
     axis 0 0 0   XYZ 
    dof ry rz
    limits (-10.0 20.0)
           (-20.0 0.0)
  end
  begin
     id 25 
     name rhumerus
     direction -1 -4.48965e-011 1.61691e-027  
     length 4.86725   
     axis -180 30 90   XYZ
    dof rx ry rz
    limits (-90.0 60.0)
           (-90.0 90.0)
           (-90.0 90.0)
  end
  begin
     id 26 
     name rradius
     direction -1 -4.48964e-011 -2.25776e-027   
     length 3.17144   
     axis -180 30 90   XYZ
    dof rx
    limits (-10.0 170.0)
  end
  begin
     id 27 
     name rwrist
     direction -1 -4.48961e-011 -7.31504e-027   
     length 1.58572   
     axis 5.74121e-015 -90 -90   XYZ
    dof ry
    limits (-180.0 0.0)
  end
  begin
     id 28
     name rhand
     direction -1 -4.49013e-011 -1.46301e-026   
     length 0.419368   
     axis 9.33524e-015 -90 -90   XYZ
    dof rx rz
    limits (-90.0 90.0)
           (-45.0 45.0)
  end
  begin
     id 29
     name rfingers
     direction -1 -4.489e-011 -2.92602e-026   
     length 0.338105   
     axis 1.86705e-014 -90 -90   XYZ
    dof rx
    limits (0.0 90.0)
  end
  begin
     id 30
     name rthumb
     direction -0.707107 -6.35022e-011 0.707107   
     length 0.485453   
     axis -90 -45 -2.85299e-015   XYZ
    dof rx rz
    limits (-45.0 45.0)
           (-45.0 45.0)
  end
:hierarchy
  begin
    root lhipjoint rhipjoint lowerback
    lhipjoint lfemur
    lfemur ltibia
    ltibia lfoot
    lfoot ltoes
    rhipjoint rfemur
    rfemur rtibia
    rtibia rfoot
    rfoot rtoes
    lowerback upperback
    upperback thorax
    thorax lowerneck lclavicle rclavicle
    lowerneck upperneck
    upperneck head
    lclavicle lhumerus
    lhumerus lradius
    lradius lwrist
    lwrist lhand lthumb
    lhand lfingers
    rclavicle rhumerus
    rhumerus rradius
    rradius rwrist
    rwrist rhand rthumb
    rhand rfingers
  end

#!OML:ASF H:\Swim 2\Project 1\Capture day 1\Session 1\male.ASF
:FULLY-SPECIFIED
:DEGREES
1436
root 3.10023 14.3991 8.47676 102.252 13.7357 -10.863
lowerback -24.1552 8.57562 -2.79614
upperback -7.86121 12.3053 6.33772
thorax 2.36689 6.66202 11.5592
lowerneck -10.7403 -2.37757 12.5269
upperneck 33.515 -2.31244 -12.3551
head 12.4389 -0.84281 -7.35361
rclavicle -1.33583e-013 -6.91771e-014
rhumerus 50.4126 -6.04626 7.98592
rradius 32.7751
rwrist 1.92144
rhand -34.8795 5.67116
rfingers 7.12502
rthumb -8.02851 -24.1563
lclavicle -1.33583e-013 -6.91771e-014
lhumerus 26.6399 -15.6043 -24.8176
lradius 28.5188
lwrist 68.7918
lhand -45.8782 -1.16619
lfingers 7.12502
lthumb -18.6285 27.9618
rfemur -47.0728 -0.56186 13.2436
rtibia 46.35
rfoot 24.8325 2.05451
rtoes 17.0401
lfemur -49.5956 1.54091 -32.7391
ltibia 33.4375
lfoot 2.25498 12.5044
ltoes -0.0168344
1437
root 3.06077 14.3964 8.47888 102.178 13.8098 -10.9208
lowerback -24.0713 8.53275 -2.88984
upperback -7.89746 12.2759 6.29541
thorax 2.28322 6.65496 11.5346
lowerneck -10.8457 -2.47509 12.2638
upperneck 33.6031 -2.43312 -12.2206
head 12.4864 -0.909148 -7.27458
rclavicle 1.27222e-014 -5.40694e-014
rhumerus 49.3129 -5.66238 7.71813
rradius 33.021
rwrist 1.60751
rhand -35.5475 6.01862
rfingers 7.12502
rthumb -8.67318 -23.7832
lclavicle 1.27222e-014 -5.40694e-014
lhumerus 27.4594 -13.9638 -24.9363
lradius 28.8183
lwrist 69.7033
lhand -45.7314 -1.42176
lfingers 7.12502
lthumb -18.4873 27.7197
rfemur -47.2058 -0.366407 13.3771
rtibia 45.9338
rfoot 25.2825 2.05339
rtoes 16.5978
lfemur -49.5017 1.84381 -32.8721
ltibia 34.2288
lfoot 2.28128 12.053
ltoes 0.15813
1438
root 3.0202 14.3939 8.47948 102.119 13.8911 -10.9493
lowerback -23.9912 8.49334 -2.95379
upperback -7.93493 12.2434 6.24188
thorax 2.20997 6.64431 11.4815
lowerneck -10.9422 -2.54528 12.0288
upperneck 33.6681 -2.49579 -12.1672
head 12.5292 -0.956734 -7.22573
rclavicle 5.725e-014 4.13472e-014
rhumerus 48.1942 -5.27357 7.40723
rradius 33.1829
rwrist 1.30358
rhand -36.2672 6.33244
rfingers 7.12502
rthumb -9.36764 -23.4394
lclavicle 5.725e-014 4.13472e-014
lhumerus 28.2879 -12.3585 -25.0086
lradius 29.1403
lwrist 70.5876
lhand -45.623 -1.57722
lfingers 7.12502
lthumb -18.3831 27.5741
rfemur -47.3911 -0.147501 13.5083
rtibia 45.4457
rfoot 25.4731 1.99447
rtoes 16.2016
lfemur -49.4013 2.23581 -33.0729
ltibia 35.198
lfoot 2.38509 11.5335
ltoes 0.431013
1439
root 2.97899 14.3916 8.47887 102.082 13.9761 -10.9425
lowerback -23.9185 8.45562 -2.99285
upperback -7.97539 12.2067 6.17638
thorax 2.14622 6.62988 11.4023
lowerneck -11.0304 -2.59803 11.8039
upperneck 33.7174 -2.52211 -12.1552
head 12.5682 -0.992385 -7.19028
rclavicle -1.11319e-013 -1.24837e-013
rhumerus 47.0587 -4.88219 7.0584
rradius 33.2542
rwrist 1.01143
rhand -36.9817 6.56297
rfingers 7.12502
rthumb -10.0569 -23.1767
lclavicle -1.11319e-013 -1.24837e-013
lhumerus 29.1299 -10.8022 -25.0389
lradius 29.4788
lwrist 71.4337
lhand -45.5742 -1.6783
lfingers 7.12502
lthumb -18.3361 27.4775
rfemur -47.6307 0.0897977 13.6314
rtibia 44.8915
rfoot 25.3871 1.8492
rtoes 15.8778
lfemur -49.2848 2.68585 -33.3196
ltibia 36.2943
lfoot 2.58354 10.975
ltoes 0.818679
1440
root 2.93758 14.3897 8.47771 102.071 14.06 -10.8996
lowerback -23.8566 8.41741 -3.0155
upperback -8.01953 12.1654 6.09945
thorax 2.0909 6.6117 11.3025
lowerneck -11.1117 -2.63981 11.5766
upperneck 33.7539 -2.52696 -12.1565
head 12.6037 -1.02085 -7.1563
rclavicle -1.39944e-013 -2.78299e-014
rhumerus 45.9122 -4.49506 6.67117
rradius 33.2362
rwrist 0.738666
rhand -37.6309 6.65087
rfingers 7.12502
rthumb -10.6832 -23.0575
lclavicle -1.39944e-013 -2.78299e-014
lhumerus 29.9821 -9.3075 -25.0328
lradius 29.8262
lwrist 72.2225
lhand -45.5788 -1.7884
lfingers 7.12502
lthumb -18.3405 27.367
rfemur -47.9244 0.342518 13.7391
rtibia 44.2711
rfoot 25.0333 1.58411
rtoes 15.6637
lfemur -49.143 3.16933 -33.5954
ltibia 37.4668
lfoot 2.89201 10.4114
ltoes 1.3233
1441
root 2.89643 14.3883 8.47693 102.087 14.1371 -10.8222
lowerback -23.8056 8.37608 -3.03118
upperback -8.06668 12.1181 6.01299
thorax 2.04256 6.58957 11.1893
lowerneck -11.1904 -2.67269 11.3405
upperneck 33.7782 -2.51622 -12.1589
head 12.6362 -1.04412 -7.11845
rclavicle -1.36764e-013 -6.67916e-014
rhumerus 44.7635 -4.12458 6.23755
rradius 33.1394
rwrist 0.490925
rhand -38.154 6.5361
rfingers 7.12502
rthumb -11.1878 -23.1456
lclavicle -1.36764e-013 -6.67916e-014
lhumerus 30.8337 -7.88384 -24.9971
lradius 30.1735
lwrist 72.9302
lhand -45.608 -1.96783
lfingers 7.12502
lthumb -18.3686 27.1849
rfemur -48.2663 0.608151 13.8237
rtibia 43.578
rfoot 24.4414 1.16725
rtoes 15.5919
lfemur -48.9647 3.66843 -33.8884
ltibia 38.6662
lfoot 3.31062 9.86673
ltoes 1.92524
1442
root 2.85603 14.3875 8.47766 102.131 14.2014 -10.7149
lowerback -23.7651 8.329 -3.05085
upperback -8.11575 12.0639 5.91957
thorax 1.99941 6.5635 11.0714
lowerneck -11.2706 -2.69382 11.1009
upperneck 33.7824 -2.48495 -12.1725
head 12.6638 -1.06103 -7.08078
rclavicle -6.36111e-015 -4.29375e-014
rhumerus 43.6225 -3.78779 5.7412
rradius 32.981
rwrist 0.262803
rhand -38.5067 6.17686
rfingers 7.12502
rthumb -11.5279 -23.4861
lclavicle -6.36111e-015 -4.29375e-014
lhumerus 31.6716 -6.5393 -24.9405
lradius 30.5103
lwrist 73.5325
lhand -45.6253 -2.25492
lfingers 7.12502
lthumb -18.3852 26.8962
rfemur -48.6463 0.884538 13.8772
rtibia 42.7988
rfoot 23.6566 0.573603
rtoes 15.6831
lfemur -48.7388 4.17112 -34.1914
ltibia 39.8457
lfoot 3.82091 9.35123
ltoes 2.58047
1443
root 2.81688 14.3875 8.48122 102.2 14.2489 -10.5832
lowerback -23.7331 8.27493 -3.0835
upperback -8.16539 12.0034 5.82251
thorax 1.95913 6.53423 10.9572
lowerneck -11.3562 -2.70196 10.8649
upperneck 33.7606 -2.43018 -12.2095
head 12.6846 -1.07117 -7.04883
rclavicle 2.54444e-014 -2.8625e-014
rhumerus 42.4978 -3.50532 5.16052
rradius 32.782
rwrist 0.0407231
rhand -38.6611 5.55328
rfingers 7.12502
rthumb -11.6768 -24.1013
lclavicle 2.54444e-014 -2.8625e-014
lhumerus 32.4864 -5.27812 -24.8703
lradius 30.8257
lwrist 74.0063
lhand -45.6017 -2.65282
lfingers 7.12502
lthumb -18.3626 26.5005
rfemur -49.0481 1.16792 13.8952
rtibia 41.9142
rfoot 22.7283 -0.208471
rtoes 15.921
lfemur -48.4549 4.67006 -34.4979
ltibia 40.9645
lfoot 4.38802 8.86216
ltoes 3.22383
1444
root 2.77947 14.3885 8.48895 102.29 14.2768 -10.4337
lowerback -23.7071 8.21456 -3.13758
upperback -8.21453 11.9396 5.72492
thorax 1.91844 6.50393 10.8549
lowerneck -11.4483 -2.69977 10.6402
upperneck 33.71 -2.35497 -12.2797
head 12.6967 -1.07615 -7.0281
rclavicle 6.04305e-014 2.94201e-014
rhumerus 41.3936 -3.29932 4.47144
rradius 32.5647
rwrist -0.203119
rhand -38.611 4.66943
rfingers 7.12502
rthumb -11.6285 -24.9879
lclavicle 6.04305e-014 2.94201e-014
lhumerus 33.2785 -4.09968 -24.7899
lradius 31.1083
lwrist 74.3311
lhand -45.5248 -3.1175
lfingers 7.12502
lthumb -18.2885 26.0428
rfemur -49.4514 1.4532 13.8757
rtibia 40.9038
rfoot 21.7023 -1.17427
rtoes 16.2632
lfemur -48.1048 5.16173 -34.8022
ltibia 41.9922
lfoot 4.97382 8.39119
ltoes 3.79787
1445
root 2.74405 14.3907 8.50174 102.396 14.2861 -10.2733
lowerback -23.6849 8.1512 -3.21886
upperback -8.26284 11.8785 5.62962
thorax 1.87361 6.4763 10.7714
lowerneck -11.5451 -2.69397 10.435
upperneck 33.6321 -2.26923 -12.3881
head 12.6983 -1.07969 -7.02309
rclavicle -1.81292e-013 -8.90555e-014
rhumerus 40.3089 -3.18803 3.65671
rradius 32.351
rwrist -0.515067
rhand -38.3717 3.53818
rfingers 7.12502
rthumb -11.3978 -26.132
lclavicle -1.81292e-013 -8.90555e-014
lhumerus 34.0593 -2.99867 -24.6962
lradius 31.35
lwrist 74.4913
lhand -45.404 -3.56945
lfingers 7.12502
lthumb -18.1724 25.6017
rfemur -49.8354 1.73549 13.822
rtibia 39.7526
rfoot 20.6132 -2.3019
rtoes 16.6548
lfemur -47.6873 5.64535 -35.0971
ltibia 42.9142
lfoot 5.54583 7.93299
ltoes 4.2719
1446
root 2.71038 14.3939 8.51949 102.511 14.2785 -10.1104
lowerback -23.6653 8.08997 -3.33172
upperback -8.31004 11.8285 5.53848
thorax 1.8213 6.45615 10.7124
lowerneck -11.6426 -2.69409 10.2553
upperneck 33.5329 -2.18827 -12.532
head 12.689 -1.08696 -7.03569
rclavicle 1.27222e-013 5.64548e-014
rhumerus 39.24 -3.18384 2.70555
rradius 32.1612
rwrist -0.955405
rhand -37.9795 2.17006
rfingers 7.12502
rthumb -11.0195 -27.5207
lclavicle 1.27222e-013 5.64548e-014
lhumerus 34.8476 -1.96356 -24.5796
lradius 31.5481
lwrist 74.4777
lhand -45.2659 -3.90947
lfingers 7.12502
lthumb -18.0395 25.274
rfemur -50.1828 2.01106 13.7396
rtibia 38.4571
rfoot 19.4829 -3.5526
rtoes 17.0484
lfemur -47.2095 6.12308 -35.3764
ltibia 43.7338
lfoot 6.09077 7.49289
ltoes 4.64999
1447
root 2.6778 14.3976 8.54118 102.629 14.2576 -9.95307
lowerback -23.6475 8.03663 -3.47763
upperback -8.35603 11.798 5.45236
thorax 1.7591 6.44818 10.6812
lowerneck -11.7363 -2.71001 10.1049
upperneck 33.4229 -2.12892 -12.703
head 12.6697 -1.10328 -7.06567
rclavicle 6.36111e-014 4.37326e-014
rhumerus 38.1836 -3.29458 1.6128
rradius 32.0147
rwrist -1.60089
rhand -37.4716 0.56369
rfingers 7.12502
rthumb -10.5295 -29.1526
lclavicle 6.36111e-014 4.37326e-014
lhumerus 35.6629 -0.977392 -24.4234
lradius 31.7087
lwrist 74.2905
lhand -45.1437 -4.04987
lfingers 7.12502
lthumb -17.9219 25.1444
rfemur -50.4812 2.27918 13.635
rtibia 37.0272
rfoot 18.3168 -4.87439
rtoes 17.4077
lfemur -46.6861 6.5978 -35.634
ltibia 44.4698
lfoot 6.60845 7.08397
ltoes 4.96993
1448
root 2.64546 14.4016 8.56541 102.744 14.2267 -9.80832
lowerback -23.632 7.99563 -3.65495
upperback -8.40043 11.7927 5.37112
thorax 1.68687 6.4554 10.6778
lowerneck -11.8217 -2.74818 9.98367
upperneck 33.312 -2.1035 -12.8885
head 12.642 -1.13211 -7.10981
rclavicle 9.54166e-015 9.54166e-015
rhumerus 37.1416 -3.5207 0.379886
rradius 31.9316
rwrist -2.54547
rhand -36.8849 -1.28665
rfingers 7.12502
rthumb -9.96364 -31.0308
lclavicle 9.54166e-015 9.54166e-015
lhumerus 36.5179 -0.0204276 -24.2081
lradius 31.8461
lwrist 73.9416
lhand -45.0643 -3.93917
lfingers 7.12502
lthumb -17.8455 25.262
rfemur -50.7239 2.542 13.5137
rtibia 35.4855
rfoot 17.109 -6.20522
rtoes 17.7141
lfemur -46.1371 7.07104 -35.8648
ltibia 45.1501
lfoot 7.10377 6.7193
ltoes 5.27771
1449
root 2.61268 14.4056 8.59091 102.851 14.1883 -9.67984
lowerback -23.6189 7.96864 -3.85847
upperback -8.44237 11.8135 5.29377
thorax 1.60657 6.47795 10.6984
lowerneck -11.8956 -2.80999 9.88934
upperneck 33.2076 -2.11655 -13.0764
head 12.608 -1.17402 -7.16371
rclavicle 2.22639e-014 -1.82882e-014
rhumerus 36.1236 -3.85788 -0.990132
rradius 31.9324
rwrist -3.88795
rhand -36.2551 -3.38077
rfingers 7.12502
rthumb -9.35593 -33.1531
lclavicle 2.22639e-014 -1.82882e-014
lhumerus 37.4136 0.92814 -23.9133
lradius 31.981
lwrist 73.457
lhand -45.0387 -3.57745
lfingers 7.12502
lthumb -17.8209 25.626
rfemur -50.9066 2.80328 13.3779
rtibia 33.8633
rfoot 15.847 -7.4777
rtoes 17.9546
lfemur -45.5818 7.54099 -36.0653
ltibia 45.8029
lfoot 7.57051 6.39904
ltoes 5.60042
